<?xml version="1.0" encoding="UTF-8"?>
<svg id="_レイヤー_1" data-name="レイヤー 1" xmlns="http://www.w3.org/2000/svg" xmlns:xlink="http://www.w3.org/1999/xlink" viewBox="0 0 2017.1 175.02">
  <defs>
    <style>
      .cls-1 {
        fill: url(#_名称未設定グラデーション_152);
      }
    </style>
    <linearGradient id="_名称未設定グラデーション_152" data-name="名称未設定グラデーション 152" x1="1008.55" y1="0" x2="1008.55" y2="175.02" gradientUnits="userSpaceOnUse">
      <stop offset=".32" stop-color="#ffb000"/>
      <stop offset="1" stop-color="#bf7a00"/>
    </linearGradient>
  </defs>
  <polygon class="cls-1" points="0 0 0 65.84 63.03 175.02 126.07 65.84 189.1 175.02 252.14 65.84 315.17 175.02 378.21 65.84 441.24 175.02 504.27 65.84 567.31 175.02 630.34 65.84 693.38 175.02 756.41 65.84 819.45 175.02 882.48 65.84 945.51 175.02 1008.55 65.84 1071.58 175.02 1134.62 65.84 1197.65 175.02 1260.69 65.84 1323.72 175.02 1386.75 65.84 1449.79 175.02 1512.82 65.84 1575.86 175.02 1638.89 65.84 1701.93 175.02 1764.96 65.84 1828 175.02 1891.03 65.84 1954.06 175.02 2017.1 65.84 2017.1 0 0 0"/>
</svg>