<?xml version="1.0" encoding="UTF-8"?>
<svg id="_レイヤー_1" data-name="レイヤー 1" xmlns="http://www.w3.org/2000/svg" viewBox="0 0 1000 1000">
  <defs>
    <style>
      .cls-1 {
        fill: #3870e0;
      }

      .cls-2 {
        fill: #282828;
      }

      .cls-3 {
        fill: #494949;
      }

      .cls-4 {
        fill: #e23737;
      }
    </style>
  </defs>
  <polygon class="cls-2" points="933.16 479.79 413.17 170.74 67.26 369.27 65.26 368.08 65.26 519.27 586.83 829.26 934.74 630.07 934.74 478.88 933.16 479.79"/>
  <g>
    <path class="cls-3" d="M271.32,359.95c.62.22,1.59,1.22,1.49,2.68l-1.78,27.65c-2.93,8.91-21.79,9.53-25.16.59l-1.54-28.25c1.01-1.05,1.93-1.61,2.38-2.61,8.36,2.53,16.5,2.09,24.61-.06Z"/>
    <path class="cls-4" d="M271.06,365.17c-8.12,2.15-16.25,2.59-24.61.06-8.68-2.63-19.28-7.72-19.44-17.77l-.78-49.98c-.13-8.3,3.12-15.51,10.58-19.57,24.64-13.4,54.22.41,54.1,13.72l-.5,54.89c-.1,10.6-10.46,16.28-19.35,18.64Z"/>
  </g>
  <g>
    <path class="cls-3" d="M416.4,447.46c.62.22,1.59,1.22,1.49,2.68l-1.78,27.65c-2.93,8.91-21.79,9.53-25.16.59l-1.54-28.25c1.01-1.05,1.93-1.61,2.38-2.61,8.36,2.53,16.5,2.09,24.61-.06Z"/>
    <path class="cls-1" d="M416.14,452.68c-8.12,2.15-16.25,2.59-24.61.06-8.68-2.63-19.28-7.72-19.44-17.77l-.78-49.98c-.13-8.3,3.12-15.51,10.58-19.57,24.64-13.4,54.22.41,54.1,13.72l-.5,54.89c-.1,10.6-10.46,16.28-19.35,18.64Z"/>
  </g>
</svg>