<?xml version="1.0" encoding="UTF-8"?>
<svg id="_レイヤー_1" data-name="レイヤー 1" xmlns="http://www.w3.org/2000/svg" viewBox="0 0 713.53 341.28">
  <defs>
    <style>
      .cls-1 {
        fill: #ffffff;
      }
    </style>
  </defs>
  <path class="cls-1" d="M365.51,82.43h-52.19v-43h52.19v43ZM365.51,301.85h-52.19V111.83h52.19v190.02Z"/>
  <path class="cls-1" d="M472.83,109.63h38.22v34.92h-38.22v94.09c0,17.64,4.41,22.05,22.05,22.05,5.88,0,11.76-.37,16.17-1.47v40.8c-8.82,1.47-20.58,1.84-30.87,1.84-40.06,0-59.54-12.13-59.54-45.94v-111.36h-31.61v-34.92h31.61v-56.97h52.19v56.97Z"/>
  <path class="cls-1" d="M692.93,261.31h-21.18v-8.18c0-1.1-.89-1.99-1.99-1.99h-1.28v-22.6c0-7.48-6.07-13.55-13.55-13.55h-14.18c-7.48,0-13.55,6.07-13.55,13.55v22.6h-1.28c-1.1,0-1.99.89-1.99,1.99v8.18h-37.15v-5.68h1.52c.51,0,.93-.42.93-.93v-9.21c0-.51-.42-.93-.93-.93h-7.08c-.51,0-.93.42-.93.93v9.21c0,.51.42.93.93.93h1.52v5.68h-14.45c-4.6,0-8.33,3.73-8.33,8.33v32.21h136.17v-37.34c0-1.77-1.43-3.2-3.2-3.2Z"/>
  <path class="cls-1" d="M14.65,166.18c0-17.83,3.29-34.44,9.87-49.84,6.58-15.39,15.71-28.82,27.39-40.29,11.67-11.47,25.64-20.43,41.88-26.91,16.24-6.47,34.13-9.71,53.66-9.71s37.15,3.24,53.5,9.71c16.34,6.48,30.41,15.45,42.2,26.91,11.78,11.46,20.97,24.9,27.55,40.29,6.58,15.4,9.87,32.01,9.87,49.84,0,16.56-2.71,31.96-8.12,46.18-5.41,14.23-13.22,26.86-23.41,37.9l40.76,42.68-57.33,8.92-21.97-22.61c-9.34,4.25-19.27,7.59-29.78,10.03-10.51,2.44-21.61,3.66-33.28,3.66-19.54,0-37.42-3.24-53.66-9.71-16.24-6.47-30.21-15.45-41.88-26.91-11.68-11.47-20.81-24.89-27.39-40.29-6.58-15.39-9.87-32.01-9.87-49.84ZM79.93,166.18c0,9.55,1.8,18.37,5.41,26.43,3.61,8.07,8.49,15.08,14.65,21.02,6.15,5.95,13.32,10.56,21.5,13.85,8.17,3.29,16.82,4.94,25.96,4.94,5.52,0,11.03-.64,16.56-1.91l-35.67-37.58,58.92-7.33,16.56,17.52c7.64-10.61,11.46-22.93,11.46-36.94,0-9.55-1.81-18.36-5.41-26.43-3.61-8.07-8.55-15.07-14.81-21.02-6.27-5.94-13.48-10.56-21.66-13.85-8.18-3.29-16.83-4.94-25.95-4.94s-17.79,1.65-25.96,4.94c-8.18,3.29-15.34,7.91-21.5,13.85-6.16,5.95-11.04,12.95-14.65,21.02-3.61,8.07-5.41,16.88-5.41,26.43Z"/>
</svg>