<?xml version="1.0" encoding="UTF-8"?>
<svg id="_レイヤー_1" data-name="レイヤー 1" xmlns="http://www.w3.org/2000/svg" viewBox="0 0 713.53 550.69">
  <defs>
    <style>
      .cls-1 {
        fill: #2d2d2d;
      }
    </style>
  </defs>
  <g>
    <path class="cls-1" d="M366.89,133.73h-52.19v-43h52.19v43ZM366.89,353.15h-52.19v-190.02h52.19v190.02Z"/>
    <path class="cls-1" d="M474.21,160.93h38.22v34.92h-38.22v94.09c0,17.64,4.41,22.05,22.05,22.05,5.88,0,11.76-.37,16.17-1.47v40.8c-8.82,1.47-20.58,1.84-30.87,1.84-40.06,0-59.54-12.13-59.54-45.94v-111.36h-31.61v-34.92h31.61v-56.97h52.19v56.97Z"/>
    <path class="cls-1" d="M694.31,312.61h-21.18v-8.18c0-1.1-.89-1.99-1.99-1.99h-1.28v-22.6c0-7.48-6.07-13.55-13.55-13.55h-14.18c-7.48,0-13.55,6.07-13.55,13.55v22.6h-1.28c-1.1,0-1.99.89-1.99,1.99v8.18h-37.15v-5.68h1.52c.51,0,.93-.42.93-.93v-9.21c0-.51-.42-.93-.93-.93h-7.08c-.51,0-.93.42-.93.93v9.21c0,.51.42.93.93.93h1.52v5.68h-14.45c-4.6,0-8.33,3.73-8.33,8.33v32.21h136.17v-37.34c0-1.77-1.43-3.2-3.2-3.2Z"/>
    <path class="cls-1" d="M16.02,217.48c0-17.83,3.29-34.44,9.87-49.84,6.58-15.39,15.71-28.82,27.39-40.29,11.67-11.47,25.64-20.43,41.88-26.91,16.24-6.47,34.13-9.71,53.66-9.71s37.15,3.24,53.5,9.71c16.34,6.48,30.41,15.45,42.2,26.91,11.78,11.46,20.97,24.9,27.55,40.29,6.58,15.4,9.87,32.01,9.87,49.84,0,16.56-2.71,31.96-8.12,46.18-5.41,14.23-13.22,26.86-23.41,37.9l40.76,42.68-57.33,8.92-21.97-22.61c-9.34,4.25-19.27,7.59-29.78,10.03-10.51,2.44-21.61,3.66-33.28,3.66-19.54,0-37.42-3.24-53.66-9.71-16.24-6.47-30.21-15.45-41.88-26.91-11.68-11.47-20.81-24.89-27.39-40.29-6.58-15.39-9.87-32.01-9.87-49.84ZM81.31,217.48c0,9.55,1.8,18.37,5.41,26.43,3.61,8.07,8.49,15.08,14.65,21.02,6.15,5.95,13.32,10.56,21.5,13.85,8.17,3.29,16.82,4.94,25.96,4.94,5.52,0,11.03-.64,16.56-1.91l-35.67-37.58,58.92-7.33,16.56,17.52c7.64-10.61,11.46-22.93,11.46-36.94,0-9.55-1.81-18.36-5.41-26.43-3.61-8.07-8.55-15.07-14.81-21.02-6.27-5.94-13.48-10.56-21.66-13.85-8.18-3.29-16.83-4.94-25.95-4.94s-17.79,1.65-25.96,4.94c-8.18,3.29-15.34,7.91-21.5,13.85-6.16,5.95-11.04,12.95-14.65,21.02-3.61,8.07-5.41,16.88-5.41,26.43Z"/>
  </g>
  <g>
    <path class="cls-1" d="M84.27,432.59l-4.74,26.89h-4.72l4.74-26.89h-2.12c-1.25,2.46-2.54,4.92-4.09,7.25-2.04,3.02-4.34,5.91-6.9,8.46-2.52,2.55-5.32,4.79-8.29,6.6-2.02,1.29-4.19,2.29-6.34,3.19l.89-5.05c4.21-2.2,7.68-4.57,11.12-8.11,3.67-3.75,6.29-7.77,8.69-12.34h-15.87l.82-4.66h22.91l1.25-7.08h4.72l-1.25,7.08h7.53l-.82,4.66h-7.53Z"/>
    <path class="cls-1" d="M127.24,440.66c-2.03,3.41-4.62,6.56-7.64,9.15-5.45,4.57-12.23,7.03-18.6,7.85-2.13.3-4.23.48-6.34.65l.87-4.92c5.8-.6,11.82-1.51,17.39-4.7,4.07-2.33,7.55-5.87,10.01-9.93,1.8-3.06,2.96-6.39,4.06-9.62h4.96c-1.25,3.88-2.56,7.85-4.72,11.52ZM99.47,428.11l.88-5.01c5.71.65,11.33,1.51,16.79,2.89l-.91,5.18c-5.44-1.47-11.03-2.5-16.75-3.06Z"/>
    <path class="cls-1" d="M172.33,434.19c-1.46,6.17-5.16,12.43-10.23,16.7-4.92,4.1-11,6.52-16.79,7.29-2.17.3-4.25.56-6.42.65l.82-4.66c5.59-.56,11.13-1.51,16.43-4.79,2.46-1.51,4.68-3.45,6.51-5.78,1.36-1.68,2.35-3.62,3.29-5.52h-29.18l.8-4.53h34.92l-.15.65ZM141.29,427.46l.82-4.66h29.63l-.82,4.66h-29.63Z"/>
    <path class="cls-1" d="M200.04,435.62l-4.29,24.34h-4.92l3.73-21.15c-6.27,3.02-12.41,4.83-18.92,6l.85-4.79c6.87-1.55,13.39-3.5,19.83-7.42,2.74-1.68,5.38-3.71,7.7-6.04,1.58-1.55,2.9-3.28,4.23-5.05h5.49c-3.82,5.96-7.94,10.19-13.68,14.11Z"/>
    <path class="cls-1" d="M249.32,440.66c-2.03,3.41-4.62,6.56-7.64,9.15-5.45,4.57-12.23,7.03-18.6,7.85-2.13.3-4.23.48-6.34.65l.87-4.92c5.8-.6,11.82-1.51,17.39-4.7,4.07-2.33,7.55-5.87,10.01-9.93,1.8-3.06,2.96-6.39,4.06-9.62h4.96c-1.25,3.88-2.56,7.85-4.72,11.52ZM221.54,428.11l.88-5.01c5.71.65,11.33,1.51,16.79,2.89l-.91,5.18c-5.44-1.47-11.03-2.5-16.75-3.06Z"/>
    <path class="cls-1" d="M261.24,454.3c3.05-.48,6.18-1.12,9.21-2.37,3.08-1.34,6.05-3.15,8.66-5.48,4.07-3.67,7.27-8.46,9.18-13.51.68-1.77,1.28-3.54,1.84-5.35h-17.7c-1.77,3.11-3.9,5.96-6.54,8.46-2.65,2.55-5.2,4.32-8.51,5.78l.92-5.22c5.34-3.54,8.74-7.77,11.4-13.64h26.37l-.1.56c-.75,4.23-2.7,9.8-4.98,14.41-2.06,4.06-4.74,7.94-8.1,11.09-4.68,4.4-10.34,7.42-16.21,8.85-2.3.56-4.09.82-6.25,1.08l.82-4.66Z"/>
    <path class="cls-1" d="M322.11,435.62l-4.29,24.34h-4.92l3.73-21.15c-6.27,3.02-12.41,4.83-18.92,6l.84-4.79c6.87-1.55,13.4-3.5,19.83-7.42,2.74-1.68,5.38-3.71,7.7-6.04,1.58-1.55,2.9-3.28,4.23-5.05h5.49c-3.82,5.96-7.94,10.19-13.68,14.11Z"/>
    <path class="cls-1" d="M359.72,444.81c-3.55,3.5-7.11,6.39-11.29,8.85-3.81,2.24-7.68,3.84-11.71,5.05l.87-4.92c2.25-.78,4.51-1.6,6.67-2.76,3.23-1.73,6.29-3.84,9.09-6.3,3.07-2.63,5.8-5.65,8.13-8.98,1.74-2.5,3.11-5.18,4.4-7.85h-21.77l.82-4.66h27.67c-2,6.26-4.83,11.7-8.96,17.09,1.65,6.13,4.43,9.71,9.02,13.47l-.95,5.39c-5.93-3.32-9.49-7.81-12-14.37ZM372.29,426.85l1.2-6.82h2.81l-1.2,6.82h-2.81ZM376.93,426.85l1.2-6.82h2.85l-1.2,6.82h-2.85Z"/>
    <path class="cls-1" d="M384.02,440.62c.15-5.91-.09-11.74-.79-17.44h4.92c.57,5.74.81,11.57.79,17.44h-4.92ZM385.67,454.09c3.27-.78,6.64-1.64,9.81-3.24,2.86-1.47,5.57-3.45,7.87-5.87,5.74-6,8.41-14.24,9.75-21.79l.08-.43h5.05l-.07.39c-1.46,8.29-5.07,18.39-11.38,24.86-4.37,4.49-9.78,7.68-15.36,9.32-2.19.65-4.41,1.21-6.6,1.68l.87-4.92ZM396.61,440.06c.18-5.87-.06-11.65-.6-17.35h4.88c.54,5.7.66,11.48.56,17.35h-4.84Z"/>
    <path class="cls-1" d="M421.02,440.54l.84-4.75h35l-.84,4.75h-35Z"/>
    <path class="cls-1" d="M459.4,453.91c1.57-1.51,2.99-3.11,4.16-4.92,2.95-4.75,4.35-10.36,5.26-15.54l1.97-11.18h4.64l-1.92,10.88c-1.06,6.04-2.75,12.39-6.29,17.91-2.45,3.71-5.3,6.26-8.86,8.67l1.03-5.83ZM495.98,443.56c-1.6,3.06-3.59,6.04-6.11,8.37-4.88,4.62-9.39,5.96-15.26,6.91l6.45-36.6h4.56l-5.36,30.38c3.91-1.42,6.51-3.24,9.18-6.82,2.78-3.75,4.31-8.07,5.51-12.34h4.6c-.93,3.41-1.94,6.86-3.57,10.1Z"/>
    <path class="cls-1" d="M562.62,447.1l-1.14,12.47h-4.76l1.1-12.47h-17.05l.81-4.62h16.68l.9-9.71h-14.33l.81-4.62h13.96l.67-7.47h4.72l-.67,7.47h15.42l-.81,4.62h-15.02l-.9,9.71h15.95l-.81,4.62h-15.54Z"/>
    <path class="cls-1" d="M588.63,443.34c.2-5.27-.03-10.44-.68-15.54h4.44c.61,5.09.83,10.27.76,15.54h-4.52ZM590.14,454.82c5.88-1.47,10.63-3.06,15.33-7.98,4.95-5.22,7.29-12.26,8.45-18.82l.1-.56h4.72l-.1.56c-1.29,7.29-4.58,16.05-10.14,21.75-3.87,3.93-8.6,6.78-13.53,8.2-1.84.52-3.76.99-5.62,1.38l.8-4.53ZM599.58,442.87c.23-5.22.04-10.36-.45-15.45h4.4c.66,5.05.68,10.23.65,15.45h-4.6Z"/>
    <path class="cls-1" d="M634.68,438.59l-3.65,20.67h-4.84l6.74-38.24h4.84l-2.21,12.56c7.76,1.9,15.42,3.97,22.9,6.52l-.92,5.22c-7.54-2.46-15.12-4.75-22.86-6.73Z"/>
  </g>
</svg>