<?xml version="1.0" encoding="UTF-8"?>
<svg id="_レイヤー_1" data-name="レイヤー 1" xmlns="http://www.w3.org/2000/svg" viewBox="0 0 1000 1000">
  <defs>
    <style>
      .cls-1 {
        fill: #ddd;
      }

      .cls-2 {
        fill: #282828;
      }

      .cls-3 {
        fill: #494949;
      }

      .cls-4 {
        fill: #e23737;
      }
    </style>
  </defs>
  <path class="cls-4" d="M754.6,308.74l-.65,36.57c-2.24,16.42-13.7,29.71-27.14,39.07-35.68,24.85-82.41,30.85-126.12,26.4-20.58-2.1-40.13-7.17-58.53-16.11-21.86-10.63-44.85-30.7-44.65-55.66l.24-29.93.48-7.08v-48.78c0-64.07,49.65-116.65,112.85-123.58,49.62-5.45,98.8,18.48,125.15,61.4,10.24,16.68,17.18,34.26,18.2,53.97l.17,63.74Z"/>
  <path class="cls-1" d="M754.6,308.74c4.95,4.28,9.63,8.48,12.7,13.94,3.87,6.89,8.36,14.97,8.34,23.6l-.11,42.46c-.09,32.82-30.16,56.32-58.58,68.52-30.8,13.23-63.62,18.41-97.44,17.48-20.1-.56-39.25-2.68-58.25-8.16-21.55-6.22-41.94-15.14-58.89-30.02-13.02-11.43-23.41-26.22-25.1-43.69l-.24-46.61c-.06-10.91,9.22-31.45,20.73-37.19l-.24,29.93c-.2,24.96,22.79,45.03,44.65,55.66,18.4,8.95,37.95,14.01,58.53,16.11,43.71,4.46,90.44-1.54,126.12-26.4,13.44-9.36,24.9-22.65,27.14-39.07l.65-36.57Z"/>
  <path class="cls-2" d="M867.17,593.55l.1-210-99.97-60.16c3.87,6.89,8.36,14.97,8.34,23.6l-.11,42.46c-.09,32.82-30.16,56.32-58.58,68.52-30.8,13.23-63.62,18.41-97.44,17.48-20.1-.56-39.25-2.68-58.25-8.16-21.56-6.22-41.94-15.14-58.89-30.02-13.02-11.43-23.41-26.22-25.1-43.69l-.24-46.61c-.06-10.91,9.22-31.45,20.73-37.19l.48-7.08-365.51,208.87v209.03s252.37,150.02,252.26,150.52M342.47,675.71v-3.06h0s0,3.06,0,3.06Z"/>
  <path class="cls-3" d="M383.62,505.57c.57.2,1.45,1.11,1.36,2.45l-1.63,25.23c-2.67,8.13-19.89,8.7-22.97.54l-1.4-25.78c.92-.96,1.77-1.47,2.17-2.38,7.63,2.31,15.06,1.91,22.46-.05Z"/>
  <path class="cls-4" d="M383.38,510.32c-7.41,1.97-14.83,2.36-22.46.05-7.92-2.4-17.6-7.05-17.74-16.22l-.71-45.61c-.12-7.57,2.85-14.16,9.65-17.86,22.49-12.23,49.49.37,49.38,12.52l-.46,50.1c-.09,9.67-9.55,14.86-17.66,17.02Z"/>
</svg>