<?xml version="1.0" encoding="UTF-8"?>
<svg id="_レイヤー_2" data-name="レイヤー 2" xmlns="http://www.w3.org/2000/svg" viewBox="0 0 226.93 333.9">
  <defs>
    <style>
      .lostcls-1 {
        opacity: .75;
      }

      .lostcls-2 {
        fill: #fc4949;
      }
    </style>
  </defs>
  <path class="lostcls-1" d="M30.11,81.75h196.82v222.03c0,16.62-13.49,30.11-30.11,30.11H30.11c-16.62,0-30.11-13.49-30.11-30.11V111.87c0-16.62,13.49-30.11,30.11-30.11Z"/>
  <g>
    <g>
      <path class="lostcls-2" d="M74.79,258.08v-22.83h4.11v19.38h10.07v3.45h-14.18Z"/>
      <path class="lostcls-2" d="M101.42,258.39c-2.01,0-3.8-.46-5.38-1.4-1.58-.93-2.83-2.27-3.75-4.01-.92-1.75-1.38-3.84-1.38-6.29s.46-4.57,1.38-6.32c.92-1.75,2.17-3.08,3.75-4.01,1.58-.93,3.37-1.4,5.38-1.4s3.77.47,5.35,1.4c1.58.93,2.82,2.27,3.73,4.01.91,1.75,1.36,3.85,1.36,6.32s-.46,4.54-1.36,6.29c-.91,1.75-2.15,3.08-3.73,4.01-1.58.93-3.36,1.4-5.35,1.4ZM101.42,254.73c1.86,0,3.38-.69,4.56-2.07,1.18-1.38,1.77-3.37,1.77-5.96s-.59-4.61-1.77-6.01c-1.18-1.39-2.7-2.09-4.56-2.09s-3.42.7-4.61,2.09c-1.19,1.39-1.79,3.39-1.79,6.01s.6,4.58,1.79,5.96c1.19,1.38,2.73,2.07,4.61,2.07Z"/>
      <path class="lostcls-2" d="M123.78,258.43c-2.66,0-4.77-.61-6.35-1.83-1.58-1.22-2.42-2.96-2.52-5.22h4.05c.08,1.21.58,2.11,1.49,2.7.91.59,2.01.88,3.31.88s2.44-.3,3.29-.91c.86-.61,1.29-1.4,1.29-2.38,0-.9-.38-1.57-1.14-2.02-.76-.45-1.76-.83-3-1.15l-2.57-.69c-1.92-.48-3.42-1.22-4.48-2.21-1.07-.99-1.6-2.29-1.6-3.9,0-1.34.37-2.51,1.1-3.53.73-1.01,1.73-1.8,2.98-2.35,1.25-.55,2.68-.83,4.27-.83s3.05.28,4.27.83c1.21.55,2.17,1.33,2.87,2.32.7.99,1.06,2.13,1.08,3.4h-3.95c-.1-.98-.54-1.74-1.32-2.27-.77-.53-1.78-.8-3.01-.8s-2.28.28-3.03.85c-.74.56-1.11,1.28-1.11,2.13,0,.65.2,1.18.6,1.58s.89.73,1.49.97c.6.24,1.2.43,1.8.58l2.13.56c1.13.27,2.21.66,3.23,1.18,1.02.51,1.86,1.2,2.51,2.07s.97,1.97.97,3.31-.34,2.51-1.02,3.53c-.68,1.01-1.66,1.8-2.95,2.37-1.29.56-2.84.85-4.66.85Z"/>
      <path class="lostcls-2" d="M134.91,238.7v-3.45h18.16v3.45h-7.02v19.38h-4.11v-19.38h-7.02Z"/>
    </g>
    <g>
      <path class="lostcls-2" d="M72.79,157.3h10.42v22.11c0,3.25-.21,6.54-.63,9.87-.42,3.33-1.23,6.59-2.44,9.8-1.21,3.2-2.96,6.26-5.25,9.17-2.29,2.91-5.31,5.54-9.06,7.91-3.75,2.37-8.38,4.34-13.9,5.91-.35-.84-.9-1.81-1.66-2.92-.76-1.11-1.55-2.19-2.37-3.25-.81-1.06-1.59-1.93-2.33-2.62,4.83-1.28,8.88-2.88,12.16-4.81,3.28-1.92,5.92-4.03,7.91-6.32s3.51-4.72,4.55-7.28c1.04-2.56,1.72-5.16,2.07-7.8.34-2.64.52-5.21.52-7.73v-22.03ZM56.82,157.97l10.57,2.29c-.79,3.25-1.8,6.43-3.03,9.54-1.23,3.11-2.56,6-3.99,8.69-1.43,2.69-2.93,5.04-4.51,7.06-.74-.54-1.7-1.16-2.88-1.85-1.18-.69-2.39-1.35-3.62-2-1.23-.64-2.27-1.13-3.1-1.48,1.58-1.67,3.06-3.71,4.44-6.1,1.38-2.39,2.59-4.96,3.62-7.73,1.04-2.76,1.87-5.57,2.51-8.43ZM47.2,186.95h62.18v10.06h-62.18v-10.06ZM60.29,167.51h43.18v10.13h-48.2l5.03-10.13ZM83.14,188.95c2.07,6.21,5.4,11.34,9.98,15.38,4.58,4.04,10.79,6.85,18.63,8.43-.74.74-1.54,1.66-2.4,2.77-.86,1.11-1.68,2.27-2.44,3.47-.76,1.21-1.39,2.3-1.89,3.29-5.77-1.53-10.63-3.69-14.6-6.47-3.97-2.78-7.28-6.23-9.94-10.35-2.66-4.11-4.93-8.91-6.8-14.38l9.46-2.14Z"/>
      <path class="lostcls-2" d="M125.57,177.63l5.54,1.92c-.49,2.71-1.1,5.53-1.81,8.47-.71,2.93-1.54,5.79-2.48,8.58-.94,2.79-1.96,5.39-3.07,7.8-1.11,2.42-2.3,4.54-3.59,6.36-.4-1.38-1.05-2.94-1.96-4.69-.91-1.75-1.74-3.22-2.48-4.4,1.13-1.48,2.21-3.18,3.22-5.1,1.01-1.92,1.95-3.96,2.81-6.1.86-2.14,1.61-4.31,2.25-6.51.64-2.19,1.16-4.3,1.55-6.32ZM117.37,171.13h24.69v9.17h-24.69v-9.17ZM125.72,157.3h9.39v64.99h-9.39v-64.99ZM134.82,180.81c.39.4.99,1.02,1.77,1.89.79.86,1.61,1.8,2.48,2.81.86,1.01,1.65,1.96,2.37,2.85.71.89,1.22,1.5,1.52,1.85l-5.18,7.47c-.44-.94-.97-1.97-1.59-3.11-.62-1.13-1.26-2.3-1.92-3.51-.67-1.21-1.33-2.35-2-3.44-.67-1.08-1.25-2-1.74-2.74l4.29-4.07ZM168.01,164.47h1.7l1.7-.3,6.28,2.81c-1.43,4.44-3.27,8.48-5.51,12.12-2.24,3.65-4.86,6.93-7.84,9.83-2.98,2.91-6.26,5.45-9.83,7.62-3.57,2.17-7.36,4.02-11.35,5.55-.59-1.18-1.43-2.58-2.51-4.18-1.08-1.6-2.1-2.87-3.03-3.81,3.6-1.08,7.01-2.54,10.24-4.36,3.23-1.82,6.17-3.94,8.83-6.36,2.66-2.41,4.97-5.09,6.91-8.02,1.95-2.93,3.41-6.03,4.4-9.28v-1.63ZM153.3,157.23l9.46,2.66c-1.28,3.15-2.81,6.25-4.58,9.28s-3.69,5.85-5.73,8.47c-2.05,2.61-4.15,4.88-6.32,6.8-.54-.59-1.27-1.32-2.18-2.18-.91-.86-1.86-1.7-2.85-2.51-.99-.81-1.82-1.47-2.51-1.96,3.11-2.37,5.96-5.37,8.58-9.02,2.61-3.65,4.66-7.49,6.14-11.53ZM145.68,196.27h30.39v25.8h-9.54v-17.52h-11.68v17.74h-9.17v-26.02ZM153.96,169.87c1.43,2.96,3.46,5.91,6.1,8.87,2.64,2.96,5.82,5.63,9.54,8.02,3.72,2.39,7.95,4.23,12.68,5.51-.64.64-1.37,1.45-2.18,2.44-.81.99-1.55,2-2.22,3.03s-1.25,1.97-1.74,2.81c-4.83-1.73-9.17-4.04-13.01-6.95-3.84-2.91-7.16-6.11-9.94-9.61-2.79-3.5-5.02-7.02-6.69-10.57l7.47-3.55ZM149.31,211.79h22.48v8.5h-22.48v-8.5ZM153.3,164.47h17.3v8.43h-17.3v-8.43Z"/>
    </g>
  </g>
</svg>