<?xml version="1.0" encoding="UTF-8"?>
<svg id="_レイヤー_1" data-name="レイヤー 1" xmlns="http://www.w3.org/2000/svg" viewBox="0 0 226.93 333.9">
  <defs>
    <style>

      @font-face {
        font-family: 'GenMid';
        src: url('../../media/font/GenInterfaceJP-Medium.woff') format('woff');
      }

      .cls-1 {
        font-family: "GenMid";
        font-size: 43.13px;
      }

      .cls-1, .cls-2, .cls-3 {
        font-weight: 700;
      }

      .cls-4 {
        fill: #c1c1c1;
      }

      .cls-5 {
        fill: #2d2c2c;
      }

      .cls-6 {
        fill: #ddd;
      }

      .cls-7 {
        fill: #fff;
      }

      .cls-2 {
        font-family: GenMid;
        font-size: 55px;
      }

      .cls-8 {
        fill: #282828;
      }

      .cls-9 {
        letter-spacing: -.02em;
      }

      .cls-10 {
        letter-spacing: -.02em;
      }

      .cls-11 {
        fill: #191919;
      }

      .lamp {
        fill: #ff4a4a;
        filter: brightness(0.3)
      }

      .cls-3 {
        font-family: "GenMid";
        font-size: 24.63px;
      }

      .cls-13 {
        fill: #e23737;
      }

    @keyframes blinking {
      0%, 41.7% {
        filter: brightness(0.3)
      }
      50% {
        filter: brightness(1)
      }
      91.7% {
        filter: brightness(1)
      }
      100% {
        filter: brightness(0.3)
      }
    }

    .blink {
      animation: blinking 1.0s linear infinite;
    }

          .lostcls-1 {
        opacity: .75;
      }

      .lostcls-2 {
        fill: #fc4949;
      }

            .woncls-1 {
        fill: #ffd400;
      }

      .woncls-2 {
        opacity: .75;
      }

      .hidden{
        opacity: 0;
      }

      #won{
        transition: 0.25s
      }

      #lost{
        transition: 0.25s
      }
    </style>
  </defs>
  <path class="cls-7 ansPlayer"
    d="M30.11,81.75h196.82v222.03c0,16.62-13.49,30.11-30.11,30.11H30.11c-16.62,0-30.11-13.49-30.11-30.11V111.87c0-16.62,13.49-30.11,30.11-30.11Z" />
  <text class="cls-3 playerName" transform="translate(113.465 148.69)" text-anchor="middle"
    id="playerName">TESTPLAYER</text>
  <g>
    <text class="cls-2" transform="translate(67.465 278.93)" text-anchor="middle" id="oCount">0</text>
    <path class="cls-4"
      d="M68.83,175.09c-7.86,0-14.23,6.37-14.23,14.23s6.37,14.23,14.23,14.23,14.23-6.37,14.23-14.23-6.37-14.23-14.23-14.23ZM68.83,199.51c-5.63,0-10.2-4.57-10.2-10.2s4.57-10.2,10.2-10.2,10.2,4.57,10.2,10.2-4.57,10.2-10.2,10.2Z" />
    <polygon class="cls-4"
      points="170.51 179.43 167.41 176.33 158.1 185.64 148.79 176.33 145.69 179.43 155 188.74 145.69 198.05 148.79 201.15 158.1 191.84 167.41 201.15 170.51 198.05 161.2 188.74 170.51 179.43" />
    <text class="cls-2" transform="translate(159.465 278.93)" text-anchor="middle" id="xCount">0</text>
  </g>
  <path class="cls-5" d="M191.13,47.97h33.14c1.47,0,2.67,1.19,2.67,2.67v31.12h-35.8v-33.78h0Z" />
  <path class="cls-11" d="M120.41,47.91h70.72v33.78h-77.66v-26.84c0-3.83,3.11-6.94,6.94-6.94Z" />
  <path class="lamp" id="lamp"
    d="M180.79,9.32h11.82c6.23,0,11.29,5.06,11.29,11.29v27.32h-34.4v-27.32c0-6.23,5.06-11.29,11.29-11.29Z" />
    <path class="cls-6"
    d="M168.43,39.44h36.53c.91,0,1.66.74,1.66,1.66v6.84h-39.85v-6.84c0-.91.74-1.66,1.66-1.66Z" />
  <rect class="cls-8" x="132.45" y="34.36" width="3.37" height="13.61" />
  <rect class="cls-13" x="130.41" y="33.95" width="7.45" height="9.23" rx=".78" ry=".78" />
  <text class="cls-1 ansPlayer" id="slashNum" transform="translate(21.67 81.75)" fill="#edc500"></text>




  <g id="lost" class="hidden">
  <path class="lostcls-1" d="M30.11,81.75h196.82v222.03c0,16.62-13.49,30.11-30.11,30.11H30.11c-16.62,0-30.11-13.49-30.11-30.11V111.87c0-16.62,13.49-30.11,30.11-30.11Z"/>
  <g>
    <g>
      <path class="lostcls-2" d="M74.79,258.08v-22.83h4.11v19.38h10.07v3.45h-14.18Z"/>
      <path class="lostcls-2" d="M101.42,258.39c-2.01,0-3.8-.46-5.38-1.4-1.58-.93-2.83-2.27-3.75-4.01-.92-1.75-1.38-3.84-1.38-6.29s.46-4.57,1.38-6.32c.92-1.75,2.17-3.08,3.75-4.01,1.58-.93,3.37-1.4,5.38-1.4s3.77.47,5.35,1.4c1.58.93,2.82,2.27,3.73,4.01.91,1.75,1.36,3.85,1.36,6.32s-.46,4.54-1.36,6.29c-.91,1.75-2.15,3.08-3.73,4.01-1.58.93-3.36,1.4-5.35,1.4ZM101.42,254.73c1.86,0,3.38-.69,4.56-2.07,1.18-1.38,1.77-3.37,1.77-5.96s-.59-4.61-1.77-6.01c-1.18-1.39-2.7-2.09-4.56-2.09s-3.42.7-4.61,2.09c-1.19,1.39-1.79,3.39-1.79,6.01s.6,4.58,1.79,5.96c1.19,1.38,2.73,2.07,4.61,2.07Z"/>
      <path class="lostcls-2" d="M123.78,258.43c-2.66,0-4.77-.61-6.35-1.83-1.58-1.22-2.42-2.96-2.52-5.22h4.05c.08,1.21.58,2.11,1.49,2.7.91.59,2.01.88,3.31.88s2.44-.3,3.29-.91c.86-.61,1.29-1.4,1.29-2.38,0-.9-.38-1.57-1.14-2.02-.76-.45-1.76-.83-3-1.15l-2.57-.69c-1.92-.48-3.42-1.22-4.48-2.21-1.07-.99-1.6-2.29-1.6-3.9,0-1.34.37-2.51,1.1-3.53.73-1.01,1.73-1.8,2.98-2.35,1.25-.55,2.68-.83,4.27-.83s3.05.28,4.27.83c1.21.55,2.17,1.33,2.87,2.32.7.99,1.06,2.13,1.08,3.4h-3.95c-.1-.98-.54-1.74-1.32-2.27-.77-.53-1.78-.8-3.01-.8s-2.28.28-3.03.85c-.74.56-1.11,1.28-1.11,2.13,0,.65.2,1.18.6,1.58s.89.73,1.49.97c.6.24,1.2.43,1.8.58l2.13.56c1.13.27,2.21.66,3.23,1.18,1.02.51,1.86,1.2,2.51,2.07s.97,1.97.97,3.31-.34,2.51-1.02,3.53c-.68,1.01-1.66,1.8-2.95,2.37-1.29.56-2.84.85-4.66.85Z"/>
      <path class="lostcls-2" d="M134.91,238.7v-3.45h18.16v3.45h-7.02v19.38h-4.11v-19.38h-7.02Z"/>
    </g>
    <g>
      <path class="lostcls-2" d="M72.79,157.3h10.42v22.11c0,3.25-.21,6.54-.63,9.87-.42,3.33-1.23,6.59-2.44,9.8-1.21,3.2-2.96,6.26-5.25,9.17-2.29,2.91-5.31,5.54-9.06,7.91-3.75,2.37-8.38,4.34-13.9,5.91-.35-.84-.9-1.81-1.66-2.92-.76-1.11-1.55-2.19-2.37-3.25-.81-1.06-1.59-1.93-2.33-2.62,4.83-1.28,8.88-2.88,12.16-4.81,3.28-1.92,5.92-4.03,7.91-6.32s3.51-4.72,4.55-7.28c1.04-2.56,1.72-5.16,2.07-7.8.34-2.64.52-5.21.52-7.73v-22.03ZM56.82,157.97l10.57,2.29c-.79,3.25-1.8,6.43-3.03,9.54-1.23,3.11-2.56,6-3.99,8.69-1.43,2.69-2.93,5.04-4.51,7.06-.74-.54-1.7-1.16-2.88-1.85-1.18-.69-2.39-1.35-3.62-2-1.23-.64-2.27-1.13-3.1-1.48,1.58-1.67,3.06-3.71,4.44-6.1,1.38-2.39,2.59-4.96,3.62-7.73,1.04-2.76,1.87-5.57,2.51-8.43ZM47.2,186.95h62.18v10.06h-62.18v-10.06ZM60.29,167.51h43.18v10.13h-48.2l5.03-10.13ZM83.14,188.95c2.07,6.21,5.4,11.34,9.98,15.38,4.58,4.04,10.79,6.85,18.63,8.43-.74.74-1.54,1.66-2.4,2.77-.86,1.11-1.68,2.27-2.44,3.47-.76,1.21-1.39,2.3-1.89,3.29-5.77-1.53-10.63-3.69-14.6-6.47-3.97-2.78-7.28-6.23-9.94-10.35-2.66-4.11-4.93-8.91-6.8-14.38l9.46-2.14Z"/>
      <path class="lostcls-2" d="M125.57,177.63l5.54,1.92c-.49,2.71-1.1,5.53-1.81,8.47-.71,2.93-1.54,5.79-2.48,8.58-.94,2.79-1.96,5.39-3.07,7.8-1.11,2.42-2.3,4.54-3.59,6.36-.4-1.38-1.05-2.94-1.96-4.69-.91-1.75-1.74-3.22-2.48-4.4,1.13-1.48,2.21-3.18,3.22-5.1,1.01-1.92,1.95-3.96,2.81-6.1.86-2.14,1.61-4.31,2.25-6.51.64-2.19,1.16-4.3,1.55-6.32ZM117.37,171.13h24.69v9.17h-24.69v-9.17ZM125.72,157.3h9.39v64.99h-9.39v-64.99ZM134.82,180.81c.39.4.99,1.02,1.77,1.89.79.86,1.61,1.8,2.48,2.81.86,1.01,1.65,1.96,2.37,2.85.71.89,1.22,1.5,1.52,1.85l-5.18,7.47c-.44-.94-.97-1.97-1.59-3.11-.62-1.13-1.26-2.3-1.92-3.51-.67-1.21-1.33-2.35-2-3.44-.67-1.08-1.25-2-1.74-2.74l4.29-4.07ZM168.01,164.47h1.7l1.7-.3,6.28,2.81c-1.43,4.44-3.27,8.48-5.51,12.12-2.24,3.65-4.86,6.93-7.84,9.83-2.98,2.91-6.26,5.45-9.83,7.62-3.57,2.17-7.36,4.02-11.35,5.55-.59-1.18-1.43-2.58-2.51-4.18-1.08-1.6-2.1-2.87-3.03-3.81,3.6-1.08,7.01-2.54,10.24-4.36,3.23-1.82,6.17-3.94,8.83-6.36,2.66-2.41,4.97-5.09,6.91-8.02,1.95-2.93,3.41-6.03,4.4-9.28v-1.63ZM153.3,157.23l9.46,2.66c-1.28,3.15-2.81,6.25-4.58,9.28s-3.69,5.85-5.73,8.47c-2.05,2.61-4.15,4.88-6.32,6.8-.54-.59-1.27-1.32-2.18-2.18-.91-.86-1.86-1.7-2.85-2.51-.99-.81-1.82-1.47-2.51-1.96,3.11-2.37,5.96-5.37,8.58-9.02,2.61-3.65,4.66-7.49,6.14-11.53ZM145.68,196.27h30.39v25.8h-9.54v-17.52h-11.68v17.74h-9.17v-26.02ZM153.96,169.87c1.43,2.96,3.46,5.91,6.1,8.87,2.64,2.96,5.82,5.63,9.54,8.02,3.72,2.39,7.95,4.23,12.68,5.51-.64.64-1.37,1.45-2.18,2.44-.81.99-1.55,2-2.22,3.03s-1.25,1.97-1.74,2.81c-4.83-1.73-9.17-4.04-13.01-6.95-3.84-2.91-7.16-6.11-9.94-9.61-2.79-3.5-5.02-7.02-6.69-10.57l7.47-3.55ZM149.31,211.79h22.48v8.5h-22.48v-8.5ZM153.3,164.47h17.3v8.43h-17.3v-8.43Z"/>
    </g>
  </g>
  </g>

<g id="won" class="hidden">
    <path class="woncls-2" d="M30.11,81.75h196.82v222.03c0,16.62-13.49,30.11-30.11,30.11H30.11c-16.62,0-30.11-13.49-30.11-30.11V111.87c0-16.62,13.49-30.11,30.11-30.11Z"/>
  <g>
    <g>
      <path class="woncls-1" d="M81.37,248.27l-6.18-22.83h4.42l2.95,12.17c.25,1.02.48,2.11.67,3.26.2,1.15.39,2.29.58,3.42.21-1.13.42-2.27.64-3.42.22-1.15.46-2.24.71-3.26l3.1-12.17h4.33l3.07,12.17c.25,1,.49,2.08.71,3.21.22,1.14.43,2.27.64,3.4.19-1.13.39-2.26.61-3.4.22-1.14.44-2.21.67-3.21l2.95-12.17h4.42l-6.18,22.83h-4.7l-3.32-12.61c-.19-.79-.37-1.64-.55-2.54-.18-.9-.35-1.84-.52-2.82-.15.96-.3,1.89-.46,2.78s-.35,1.75-.58,2.59l-3.32,12.61h-4.67Z"/>
      <path class="woncls-1" d="M118,248.58c-2.01,0-3.8-.46-5.38-1.4-1.58-.93-2.83-2.27-3.75-4.01-.92-1.75-1.38-3.84-1.38-6.29s.46-4.57,1.38-6.32c.92-1.75,2.17-3.08,3.75-4.01,1.58-.93,3.37-1.4,5.38-1.4s3.77.47,5.35,1.4c1.58.93,2.82,2.27,3.73,4.01.91,1.75,1.36,3.85,1.36,6.32s-.46,4.54-1.36,6.29c-.91,1.75-2.15,3.08-3.73,4.01-1.58.93-3.36,1.4-5.35,1.4ZM118,244.91c1.86,0,3.38-.69,4.56-2.07,1.18-1.38,1.77-3.37,1.77-5.96s-.59-4.61-1.77-6.01c-1.18-1.39-2.7-2.09-4.56-2.09s-3.42.7-4.61,2.09c-1.19,1.39-1.79,3.39-1.79,6.01s.6,4.58,1.79,5.96c1.19,1.38,2.73,2.07,4.61,2.07Z"/>
      <path class="woncls-1" d="M132.33,248.27v-22.83h4.64l7.87,12.58c.42.67.87,1.44,1.35,2.3.48.87.97,1.88,1.47,3.03-.08-1.11-.15-2.2-.19-3.26-.04-1.07-.06-1.96-.06-2.67v-11.98h4.14v22.83h-4.64l-7.12-11.32c-.4-.63-.77-1.25-1.13-1.88-.36-.63-.73-1.31-1.11-2.04-.39-.73-.83-1.59-1.33-2.57.06,1.4.13,2.67.19,3.81.06,1.14.09,2.03.09,2.68v11.32h-4.17Z"/>
    </g>
    <g>
      <path class="woncls-1" d="M28.88,168.9h6.25v18.69c0,2.06-.04,4.31-.11,6.75-.07,2.43-.22,4.92-.44,7.46-.22,2.54-.54,4.99-.97,7.35-.42,2.36-1,4.5-1.74,6.41-.41-.33-.96-.7-1.66-1.11-.7-.41-1.41-.8-2.13-1.19-.72-.39-1.34-.65-1.85-.8.59-1.77,1.07-3.69,1.44-5.78.37-2.08.64-4.24.8-6.47.17-2.23.28-4.42.33-6.58.06-2.16.08-4.17.08-6.05v-18.69ZM31.59,180.4h9.23v6.69h-9.23v-6.69ZM31.59,192.12h9.23v6.8h-9.23v-6.8ZM32.03,168.9h10.39v6.69h-10.39v-6.69ZM37.78,168.9h6.47v39.31c0,1.47-.12,2.71-.36,3.7-.24,1-.78,1.79-1.63,2.38-.81.59-1.74.96-2.79,1.11-1.05.15-2.28.22-3.68.22-.07-.92-.29-2.06-.64-3.43-.35-1.36-.73-2.51-1.13-3.43.59.04,1.19.07,1.8.08.61.02,1.04.03,1.3.03s.43-.06.52-.19c.09-.13.14-.34.14-.64v-39.14ZM55.31,167.07l6.69.66c-.63,4.98-1.55,9.54-2.76,13.68-1.22,4.15-2.85,7.83-4.89,11.06-2.05,3.23-4.64,5.98-7.77,8.27-.26-.48-.64-1.09-1.13-1.82-.5-.74-1.03-1.47-1.6-2.18-.57-.72-1.08-1.3-1.52-1.74,2.76-1.81,5.02-4.07,6.77-6.8,1.75-2.73,3.12-5.86,4.12-9.4.99-3.54,1.69-7.44,2.1-11.72ZM54.86,192.12h6.75c-.15,2.73-.4,5.28-.75,7.66-.35,2.38-.96,4.55-1.82,6.52-.87,1.97-2.11,3.74-3.73,5.31-1.62,1.57-3.76,2.94-6.41,4.12-.37-.88-.95-1.89-1.74-3.01-.79-1.12-1.58-2.02-2.35-2.68,2.25-.85,4.04-1.86,5.36-3.04,1.33-1.18,2.3-2.51,2.93-3.98.63-1.47,1.06-3.11,1.3-4.92.24-1.81.4-3.8.47-5.97ZM45.13,183.99h29.52v5.97h-29.52v-5.97ZM45.91,175.59h27.86v5.86h-27.86v-5.86ZM46.02,169.56l5.53-1.82c.55.96,1.07,2.03,1.55,3.21.48,1.18.85,2.21,1.11,3.1l-5.92,2.1c-.15-.88-.44-1.95-.88-3.21-.44-1.25-.9-2.38-1.38-3.37ZM48.5,196.32h17.53v6.03h-17.53v-6.03ZM64.1,196.32h6.91c-.04,1.25-.09,2.08-.17,2.49-.15,2.95-.31,5.41-.5,7.38-.19,1.97-.41,3.52-.69,4.64-.28,1.12-.64,1.94-1.08,2.46-.52.66-1.09,1.13-1.71,1.41-.63.28-1.31.47-2.05.58-.66.11-1.49.18-2.49.22-1,.04-2.06.04-3.21,0-.04-.96-.22-2.01-.55-3.15-.33-1.14-.74-2.12-1.22-2.93.81.07,1.56.13,2.24.17.68.04,1.21.06,1.58.06s.66-.04.88-.11c.22-.07.44-.22.66-.44.22-.29.41-.87.58-1.71.17-.85.31-2.09.44-3.73.13-1.64.25-3.77.36-6.39v-.94ZM66.53,178.79c.52,2.25,1.2,4.4,2.05,6.47.85,2.06,1.9,3.93,3.15,5.58,1.25,1.66,2.71,2.99,4.37,3.98-.74.66-1.58,1.57-2.52,2.71-.94,1.14-1.67,2.18-2.18,3.1-1.92-1.4-3.57-3.15-4.95-5.25s-2.53-4.45-3.46-7.05c-.92-2.6-1.7-5.39-2.32-8.38l5.86-1.16ZM65.92,167.4l6.8,1.94c-.74,1.33-1.47,2.59-2.21,3.79-.74,1.2-1.4,2.22-1.99,3.07l-5.58-1.82c.37-.63.74-1.35,1.11-2.16.37-.81.73-1.64,1.08-2.49.35-.85.62-1.62.8-2.32Z"/>
      <path class="woncls-1" d="M80.2,184.81c1.34.22,2.75.4,4.22.56,1.47.15,2.8.23,4.01.23s2.57-.04,4.01-.12c1.44-.08,2.97-.2,4.59-.35,1.62-.15,3.25-.35,4.89-.6,1.65-.25,3.26-.53,4.85-.86l.12,5.47c-1.15.19-2.48.39-3.99.6-1.51.21-3.1.39-4.79.56-1.69.16-3.36.3-5.02.41-1.66.11-3.2.16-4.63.16-1.54,0-3.01-.03-4.42-.08-1.41-.05-2.69-.14-3.85-.25v-5.72ZM94.27,180.57c-.25.77-.44,1.5-.58,2.2-.14.7-.29,1.39-.45,2.08-.14.6-.28,1.27-.43,1.99-.15.73-.31,1.47-.49,2.24-.18.77-.36,1.56-.53,2.36-.18.81-.37,1.6-.58,2.37-.21.77-.41,1.51-.6,2.22,1.51-.66,2.95-1.13,4.34-1.42,1.38-.29,2.86-.43,4.42-.43,2.08,0,3.91.34,5.49,1.03,1.58.69,2.82,1.67,3.74,2.94.92,1.27,1.38,2.78,1.38,4.5,0,2.19-.49,4.05-1.48,5.57-.99,1.52-2.41,2.71-4.26,3.58-1.85.86-4.07,1.42-6.66,1.67s-5.49.21-8.7-.12l-1.6-5.96c2.03.36,4.02.56,5.96.6,1.95.04,3.71-.1,5.28-.41,1.58-.31,2.83-.86,3.76-1.62.93-.77,1.4-1.81,1.4-3.13,0-.99-.43-1.85-1.3-2.59-.86-.74-2.12-1.11-3.76-1.11-2.14,0-4.09.38-5.86,1.13-1.77.75-3.19,1.84-4.26,3.27-.16.25-.32.49-.47.74-.15.25-.32.53-.51.86l-5.43-1.89c.71-1.37,1.37-2.92,1.97-4.65s1.14-3.48,1.63-5.24c.48-1.77.88-3.42,1.19-4.96.31-1.54.54-2.81.68-3.82.14-.93.21-1.7.23-2.3.01-.6,0-1.25-.02-1.93l6.5.25Z"/>
      <path class="woncls-1" d="M113.88,192.67c1.55-.33,3.33-.73,5.33-1.19,2.01-.46,4.14-.95,6.39-1.47,2.25-.52,4.48-1.05,6.69-1.6l.89,6.8c-2.99.88-6.03,1.76-9.12,2.63-3.1.87-5.97,1.69-8.62,2.46l-1.55-7.63ZM120.35,167.07h7.35v40.8c0,1.73-.18,3.08-.52,4.04-.35.96-1.02,1.73-2.02,2.32-.96.55-2.12.91-3.48,1.08-1.36.17-2.99.25-4.86.25-.07-.96-.31-2.09-.72-3.4-.41-1.31-.83-2.44-1.27-3.4.88.04,1.78.07,2.68.08.9.02,1.54.03,1.91.03.37-.04.62-.12.75-.25.13-.13.19-.38.19-.75v-40.8ZM114.93,176.3h16.86v6.86h-16.86v-6.86ZM137.88,167.13h7.19c-.04,4.02-.1,7.93-.19,11.72-.09,3.8-.35,7.44-.77,10.92-.42,3.48-1.09,6.79-1.99,9.92-.9,3.13-2.17,6.03-3.79,8.68-1.62,2.65-3.69,5.03-6.19,7.13-.55-.88-1.32-1.83-2.29-2.85-.98-1.01-1.93-1.81-2.85-2.4,2.28-1.84,4.13-3.93,5.53-6.28,1.4-2.34,2.47-4.87,3.21-7.6.74-2.73,1.25-5.65,1.55-8.76.3-3.11.46-6.39.5-9.81.04-3.43.07-6.98.11-10.67ZM132.35,174.48h29.97v6.86h-29.97v-6.86ZM152.75,185.7h1.27l1.22-.22,4.48,1.22c-.7,4.98-1.82,9.33-3.37,13.05-1.55,3.72-3.54,6.89-5.97,9.51-2.43,2.62-5.34,4.75-8.73,6.41-.44-.88-1.06-1.93-1.85-3.12-.79-1.2-1.56-2.13-2.29-2.79,2.87-1.18,5.35-2.86,7.44-5.03,2.08-2.17,3.79-4.78,5.11-7.82,1.33-3.04,2.23-6.4,2.71-10.09v-1.11ZM143.96,190.9c.99,2.99,2.37,5.69,4.12,8.13,1.75,2.43,3.91,4.52,6.47,6.28,2.56,1.75,5.57,3.09,9.04,4.01-.52.52-1.08,1.15-1.69,1.91-.61.76-1.18,1.53-1.71,2.32-.53.79-.97,1.52-1.3,2.18-3.72-1.29-6.92-3.03-9.59-5.22-2.67-2.19-4.93-4.8-6.77-7.82-1.84-3.02-3.39-6.47-4.64-10.34l6.08-1.44ZM141.09,185.7h13.38v6.58h-14.71l1.33-6.58Z"/>
      <path class="woncls-1" d="M176.81,181.31c-.16.52-.35,1.12-.56,1.79-.21.67-.36,1.23-.47,1.67-.19.88-.41,1.97-.66,3.29-.25,1.32-.46,2.7-.64,4.15-.18,1.45-.28,2.86-.31,4.22-.03,1.36.04,2.52.21,3.48.25-.44.52-1.01.82-1.71.3-.7.6-1.34.91-1.91l2.8,1.85c-.41,1.18-.79,2.37-1.13,3.58-.34,1.21-.64,2.34-.88,3.39-.25,1.06-.47,1.98-.66,2.78-.05.3-.11.64-.16,1.03-.06.38-.08.69-.08.9,0,.19,0,.45.02.78.01.33.03.64.06.95l-5.18.49c-.27-.74-.6-1.8-.97-3.17-.37-1.37-.69-2.88-.95-4.52-.26-1.65-.39-3.24-.39-4.77,0-2.11.07-4.13.21-6.05.14-1.92.29-3.67.47-5.26.18-1.59.33-2.89.47-3.91.11-.58.18-1.19.21-1.85.03-.66.05-1.28.08-1.85l6.79.66ZM179.94,187.81c.66.08,1.29.16,1.89.23.6.07,1.2.11,1.79.12.59.01,1.21.02,1.87.02,1.67,0,3.45-.03,5.35-.1,1.89-.07,3.71-.18,5.45-.33,1.74-.15,3.21-.32,4.42-.51l-.04,5.96c-1.15.11-2.57.21-4.26.31-1.69.1-3.45.17-5.31.23-1.85.06-3.67.08-5.45.08-.52,0-1.1-.01-1.73-.04-.63-.03-1.28-.05-1.95-.06-.67-.01-1.35-.03-2.04-.06v-5.84ZM195.57,180.61c-.08.49-.13.98-.14,1.46-.01.48-.03.94-.06,1.38-.03.38-.04.96-.04,1.73v10.12c0,2.3-.1,4.36-.29,6.17s-.58,3.47-1.17,4.98c-.59,1.51-1.43,2.91-2.53,4.2-1.1,1.29-2.56,2.55-4.4,3.78l-5.31-4.2c.79-.36,1.67-.85,2.61-1.48.95-.63,1.69-1.28,2.24-1.93.55-.69,1.02-1.4,1.42-2.14s.73-1.56.99-2.47c.26-.91.45-1.92.56-3.04.11-1.12.16-2.43.16-3.91v-2.76c0-1.1-.01-2.23-.04-3.39-.03-1.16-.06-2.25-.08-3.25-.03-1-.07-1.8-.12-2.41,0-.49-.06-1.01-.16-1.56-.11-.55-.21-.97-.29-1.28h6.66Z"/>
    </g>
  </g>
</g>
</svg>