<?xml version="1.0" encoding="UTF-8"?>
<svg id="_レイヤー_1" data-name="レイヤー 1" xmlns="http://www.w3.org/2000/svg" viewBox="0 0 226.93 333.9">
  <defs>
    <style>
      .cls-1 {
        fill: #c1c1c1;
      }

      .cls-2, .cls-3, .cls-4, .cls-5 {
        isolation: isolate;
      }

      .cls-6 {
        fill: #2d2c2c;
      }

      .cls-3 {
        font-size: 55px;
      }

      .cls-3, .cls-4, .cls-5 {
        font-family: GenInterfaceJP-Bold, 'Gen Interface JP';
        font-weight: 700;
      }

      .cls-7 {
        fill: #ddd;
      }

      .cls-8 {
        letter-spacing: 0em;
      }

      .cls-9 {
        fill: #ffb600;
      }

      .cls-4 {
        fill: #919191;
        font-size: 31.58px;
      }

      .cls-5 {
        font-size: 24.63px;
      }

      .cls-10 {
        fill: #fff;
      }

      .cls-11 {
        fill: #282828;
      }

      .cls-12 {
        letter-spacing: -.08em;
      }

      .cls-13 {
        fill: #191919;
      }

      .cls-14 {
        letter-spacing: 0em;
      }

      .cls-15 {
        fill: #ff4a4a;
      }

      .cls-16 {
        fill: #e23737;
      }
    </style>
  </defs>
  <path class="cls-10" d="M30.11,81.76h196.82v222.03c0,16.62-13.49,30.11-30.11,30.11H30.11C13.49,333.9,0,320.41,0,303.79V111.88C0,95.26,13.49,81.77,30.11,81.77h0Z"/>
  <text id="playerName" class="cls-5" transform="translate(33.85 148.7)"><tspan x="0" y="0">TE</tspan><tspan class="cls-14" x="31.38" y="0">S</tspan><tspan class="cls-8" x="47.34" y="0">TPL</tspan><tspan class="cls-12" x="93.64" y="0">A</tspan><tspan x="110.1" y="0">YER</tspan></text>
  <g>
    <text id="oCount" class="cls-3" transform="translate(48.93 278.94)"><tspan x="0" y="0">0</tspan></text>
    <path class="cls-1" d="M68.83,175.1c-7.86,0-14.23,6.37-14.23,14.23s6.37,14.23,14.23,14.23,14.23-6.37,14.23-14.23-6.37-14.23-14.23-14.23ZM68.83,199.52c-5.63,0-10.2-4.57-10.2-10.2s4.57-10.2,10.2-10.2,10.2,4.57,10.2,10.2-4.57,10.2-10.2,10.2Z"/>
    <polygon class="cls-1" points="170.51 179.44 167.41 176.34 158.1 185.65 148.79 176.34 145.69 179.44 155 188.75 145.69 198.06 148.79 201.16 158.1 191.85 167.41 201.16 170.51 198.06 161.2 188.75 170.51 179.44"/>
    <text id="xCount" class="cls-3" transform="translate(140.93 278.94)"><tspan x="0" y="0">0</tspan></text>
  </g>
  <path class="cls-6" d="M191.13,47.98h33.14c1.47,0,2.67,1.19,2.67,2.67v31.12h-35.8v-33.78h0Z"/>
  <path class="cls-13" d="M120.41,47.92h70.72v33.78h-77.66v-26.84c0-3.83,3.11-6.94,6.94-6.94Z"/>
  <path id="lamp" class="cls-15" d="M180.79,9.33h11.82c6.23,0,11.29,5.06,11.29,11.29v27.32h-34.4v-27.32c0-6.23,5.06-11.29,11.29-11.29h0Z"/>
  <path class="cls-7" d="M168.43,39.45h36.53c.91,0,1.66.74,1.66,1.66v6.84h-39.85v-6.84c0-.91.74-1.66,1.66-1.66Z"/>
  <rect class="cls-11" x="132.45" y="34.37" width="3.37" height="13.61"/>
  <rect class="cls-16" x="130.41" y="33.96" width="7.45" height="9.23" rx=".78" ry=".78"/>
  <g>
    <g>
      <path class="cls-9" d="M99.65,295.44l-9.34,16.18c-.82,1.43.21,3.21,1.85,3.21h18.68c1.65,0,2.68-1.78,1.85-3.21l-9.34-16.18c-.82-1.43-2.88-1.43-3.71,0Z"/>
      <g class="cls-2">
        <path d="M101.5,312.47c-.68,0-1.22-.55-1.22-1.22s.55-1.22,1.22-1.22,1.22.55,1.22,1.22-.55,1.22-1.22,1.22ZM100.36,301.64c-.04-.88.55-1.35,1.15-1.35s1.18.43,1.18,1.3v.09l-.33,6.7c-.03.55-.45.84-.85.84s-.79-.27-.82-.84l-.33-6.73Z"/>
      </g>
    </g>
    <text id="playerName-2" data-name="playerName" class="cls-4" transform="translate(116.51 316.91)"><tspan x="0" y="0">0</tspan></text>
  </g>
</svg>