<?xml version="1.0" encoding="UTF-8"?>
<svg id="_レイヤー_1" data-name="レイヤー 1" xmlns="http://www.w3.org/2000/svg" viewBox="0 0 226.93 333.9">
  <defs>
    <style>
      .cls-1 {
        font-family: ShinMGoPr6-Bold-83pv-RKSJ-H, 'A-OTF Shin Maru Go Pr6';
        font-size: 24.63px;
      }

      .cls-1, .cls-2 {
        font-weight: 700;
      }

      .cls-3 {
        fill: #ffd400;
      }

      .cls-4 {
        fill: #c1c1c1;
      }

      .cls-5 {
        fill: #2d2c2c;
      }

      .cls-6 {
        fill: #ddd;
      }

      .cls-7 {
        fill: #fff;
      }

      .cls-2 {
        font-family: Futura-CondensedExtraBold, Futura;
        font-size: 68.19px;
      }

      .cls-8 {
        fill: #282828;
      }

      .cls-9 {
        fill: #191919;
      }

      .cls-10 {
        fill: #ff4a4a;
      }

      .cls-11 {
        fill: #e23737;
      }
    </style>
  </defs>
  <path class="cls-7" d="M30.11,81.75h196.82v222.03c0,16.62-13.49,30.11-30.11,30.11H30.11c-16.62,0-30.11-13.49-30.11-30.11V111.87c0-16.62,13.49-30.11,30.11-30.11Z"/>
  <text class="cls-1" transform="translate(69.22 151.53)"><tspan x="0" y="0">Player</tspan></text>
  <text class="cls-2" transform="translate(48.33 301.36)"><tspan x="0" y="0">0</tspan></text>
  <path class="cls-4" d="M68.83,197.52c-7.86,0-14.23,6.37-14.23,14.23s6.37,14.23,14.23,14.23,14.23-6.37,14.23-14.23-6.37-14.23-14.23-14.23ZM68.83,221.95c-5.63,0-10.2-4.57-10.2-10.2s4.57-10.2,10.2-10.2,10.2,4.57,10.2,10.2-4.57,10.2-10.2,10.2Z"/>
  <polygon class="cls-4" points="170.51 201.87 167.41 198.77 158.1 208.08 148.79 198.77 145.69 201.87 155 211.18 145.69 220.49 148.79 223.59 158.1 214.28 167.41 223.59 170.51 220.49 161.2 211.18 170.51 201.87"/>
  <text class="cls-2" transform="translate(137.59 301.36)"><tspan x="0" y="0">0</tspan></text>
  <g>
    <path class="cls-3" d="M40.8,81.7h-7.53v-21.32h-3.02v-6.55h10.54v27.88Z"/>
    <path class="cls-3" d="M47.89,80.09l2.64-5.42c1.3,1.36,2.51,2.04,3.63,2.04.94,0,1.41-.34,1.41-1.01,0-.58-.63-1.1-1.9-1.55-3.41-1.2-5.11-3.11-5.11-5.72,0-1.91.76-3.5,2.27-4.77,1.53-1.26,3.44-1.9,5.72-1.9,1.88,0,3.82.53,5.81,1.59l-2.47,5.29c-1.22-1.14-2.21-1.71-2.98-1.71s-1.14.31-1.14.92c0,.66.72,1.28,2.17,1.86,1.81.71,3.03,1.46,3.68,2.26.69.79,1.03,1.89,1.03,3.29,0,2.01-.73,3.65-2.18,4.93-1.46,1.28-3.33,1.91-5.61,1.91-1.1,0-2.19-.14-3.27-.42-.51-.13-1.06-.33-1.66-.61-.6-.27-1.28-.6-2.04-.98Z"/>
    <path class="cls-3" d="M73.62,81.7h-7.26v-13.69h-2.06v-5.83h2.06v-5.74h7.26v5.74h2.4v5.83h-2.4v13.69Z"/>
  </g>
  <path class="cls-5" d="M191.13,47.97h33.14c1.47,0,2.67,1.19,2.67,2.67v31.12h-35.8v-33.78h0Z"/>
  <path class="cls-9" d="M120.41,47.91h70.72v33.78h-77.66v-26.84c0-3.83,3.11-6.94,6.94-6.94Z"/>
  <path class="cls-10" d="M180.79,9.32h11.82c6.23,0,11.29,5.06,11.29,11.29v27.32h-34.4v-27.32c0-6.23,5.06-11.29,11.29-11.29Z"/>
  <path class="cls-6" d="M168.43,39.44h36.53c.91,0,1.66.74,1.66,1.66v6.84h-39.85v-6.84c0-.91.74-1.66,1.66-1.66Z"/>
  <rect class="cls-8" x="132.45" y="34.36" width="3.37" height="13.61"/>
  <rect class="cls-11" x="130.41" y="33.95" width="7.45" height="9.23" rx=".78" ry=".78"/>
</svg>