<?xml version="1.0" encoding="UTF-8"?>
<svg id="_レイヤー_1" data-name="レイヤー 1" xmlns="http://www.w3.org/2000/svg" viewBox="0 0 226.93 333.9">
  <defs>
    <style>
      .cls-1 {
        font-size: 23.16px;
      }

      .cls-1, .cls-2, .cls-3 {
        font-family: GenInterfaceJP-Bold, 'Gen Interface JP';
        font-weight: 700;
      }

      .cls-4 {
        fill: #ffce00;
      }

      .cls-5 {
        fill: #8e8e8e;
      }

      .cls-6 {
        fill: #2d2c2c;
      }

      .cls-7 {
        fill: #ddd;
      }

      .cls-8 {
        letter-spacing: 0em;
      }

      .cls-2 {
        font-size: 24.63px;
      }

      .cls-2, .cls-3 {
        isolation: isolate;
      }

      .cls-9 {
        fill: #fff;
      }

      .cls-3 {
        font-size: 94.48px;
      }

      .cls-10 {
        fill: #282828;
      }

      .cls-11 {
        letter-spacing: -.08em;
      }

      .cls-12 {
        fill: #191919;
      }

      .cls-13 {
        letter-spacing: 0em;
      }

      .cls-14 {
        fill: #ff4a4a;
      }

      .cls-15 {
        fill: #ededed;
      }

      .cls-16 {
        fill: #e23737;
      }
    </style>
  </defs>
  <path class="cls-9" d="M30.11,81.76h196.82v222.03c0,16.62-13.49,30.11-30.11,30.11H30.11C13.49,333.9,0,320.41,0,303.79V111.88C0,95.26,13.49,81.77,30.11,81.77h0Z"/>
  <text id="playerName" class="cls-2" transform="translate(33.85 148.7)"><tspan x="0" y="0">TE</tspan><tspan class="cls-13" x="31.38" y="0">S</tspan><tspan class="cls-8" x="47.34" y="0">TPL</tspan><tspan class="cls-11" x="93.64" y="0">A</tspan><tspan x="110.1" y="0">YER</tspan></text>
  <path class="cls-6" d="M191.13,47.98h33.14c1.47,0,2.67,1.19,2.67,2.67v31.12h-35.8v-33.78h0Z"/>
  <path class="cls-12" d="M120.41,47.92h70.72v33.78h-77.66v-26.84c0-3.83,3.11-6.94,6.94-6.94Z"/>
  <path id="lamp" class="cls-14" d="M180.79,9.33h11.82c6.23,0,11.29,5.06,11.29,11.29v27.32h-34.4v-27.32c0-6.23,5.06-11.29,11.29-11.29h0Z"/>
  <path class="cls-7" d="M168.43,39.45h36.53c.91,0,1.66.74,1.66,1.66v6.84h-39.85v-6.84c0-.91.74-1.66,1.66-1.66Z"/>
  <rect class="cls-10" x="132.45" y="34.37" width="3.37" height="13.61"/>
  <rect class="cls-16" x="130.41" y="33.96" width="7.45" height="9.23" rx=".78" ry=".78"/>
  <text id="xCount" class="cls-3" transform="translate(81.63 253.23)"><tspan x="0" y="0">0</tspan></text>
  <rect class="cls-15" x="61.71" y="280.85" width="103.51" height="33.7" rx="16.85" ry="16.85"/>
  <path class="cls-5" d="M114.08,302c.12.12.41.44.41.8,0,.55-.66,1.15-1.15,1.15-.3,0-.64-.23-.8-.41l-3.62-3.63-3.62,3.63c-.18.18-.48.41-.8.41-.57,0-1.15-.67-1.15-1.15,0-.34.32-.71.41-.8l3.63-3.64-3.63-3.62c-.12-.12-.41-.44-.41-.8,0-.55.66-1.15,1.15-1.15.32,0,.69.3.8.41l3.62,3.63,3.62-3.63c.12-.14.44-.41.8-.41.57,0,1.15.67,1.15,1.15,0,.3-.23.62-.41.8l-3.62,3.62,3.62,3.64Z"/>
  <text class="cls-1" transform="translate(121.19 305.97)"><tspan x="0" y="0">20</tspan></text>
  <path class="cls-4" d="M87.69,288.82l1.49,4.59c.15.45.57.76,1.05.76h4.83c1.07,0,1.51,1.37.65,1.99l-3.91,2.84c-.39.28-.55.78-.4,1.23l1.49,4.59c.33,1.02-.83,1.86-1.7,1.23l-3.91-2.84c-.39-.28-.91-.28-1.3,0l-3.91,2.84c-.86.63-2.03-.22-1.7-1.23l1.49-4.59c.15-.45-.01-.95-.4-1.23l-3.91-2.84c-.86-.63-.42-1.99.65-1.99h4.83c.48,0,.9-.31,1.05-.76l1.49-4.59c.33-1.02,1.77-1.02,2.1,0Z"/>
</svg>