<?xml version="1.0" encoding="UTF-8"?>
<svg id="_レイヤー_2" data-name="レイヤー 2" xmlns="http://www.w3.org/2000/svg" viewBox="0 0 226.93 333.9">
  <defs>
    <style>
      .woncls-1 {
        fill: #ffd400;
      }

      .woncls-2 {
        opacity: .75;
      }
    </style>
  </defs>
  <path class="woncls-2" d="M30.11,81.75h196.82v222.03c0,16.62-13.49,30.11-30.11,30.11H30.11c-16.62,0-30.11-13.49-30.11-30.11V111.87c0-16.62,13.49-30.11,30.11-30.11Z"/>
  <g>
    <g>
      <path class="woncls-1" d="M81.37,248.27l-6.18-22.83h4.42l2.95,12.17c.25,1.02.48,2.11.67,3.26.2,1.15.39,2.29.58,3.42.21-1.13.42-2.27.64-3.42.22-1.15.46-2.24.71-3.26l3.1-12.17h4.33l3.07,12.17c.25,1,.49,2.08.71,3.21.22,1.14.43,2.27.64,3.4.19-1.13.39-2.26.61-3.4.22-1.14.44-2.21.67-3.21l2.95-12.17h4.42l-6.18,22.83h-4.7l-3.32-12.61c-.19-.79-.37-1.64-.55-2.54-.18-.9-.35-1.84-.52-2.82-.15.96-.3,1.89-.46,2.78s-.35,1.75-.58,2.59l-3.32,12.61h-4.67Z"/>
      <path class="woncls-1" d="M118,248.58c-2.01,0-3.8-.46-5.38-1.4-1.58-.93-2.83-2.27-3.75-4.01-.92-1.75-1.38-3.84-1.38-6.29s.46-4.57,1.38-6.32c.92-1.75,2.17-3.08,3.75-4.01,1.58-.93,3.37-1.4,5.38-1.4s3.77.47,5.35,1.4c1.58.93,2.82,2.27,3.73,4.01.91,1.75,1.36,3.85,1.36,6.32s-.46,4.54-1.36,6.29c-.91,1.75-2.15,3.08-3.73,4.01-1.58.93-3.36,1.4-5.35,1.4ZM118,244.91c1.86,0,3.38-.69,4.56-2.07,1.18-1.38,1.77-3.37,1.77-5.96s-.59-4.61-1.77-6.01c-1.18-1.39-2.7-2.09-4.56-2.09s-3.42.7-4.61,2.09c-1.19,1.39-1.79,3.39-1.79,6.01s.6,4.58,1.79,5.96c1.19,1.38,2.73,2.07,4.61,2.07Z"/>
      <path class="woncls-1" d="M132.33,248.27v-22.83h4.64l7.87,12.58c.42.67.87,1.44,1.35,2.3.48.87.97,1.88,1.47,3.03-.08-1.11-.15-2.2-.19-3.26-.04-1.07-.06-1.96-.06-2.67v-11.98h4.14v22.83h-4.64l-7.12-11.32c-.4-.63-.77-1.25-1.13-1.88-.36-.63-.73-1.31-1.11-2.04-.39-.73-.83-1.59-1.33-2.57.06,1.4.13,2.67.19,3.81.06,1.14.09,2.03.09,2.68v11.32h-4.17Z"/>
    </g>
    <g>
      <path class="woncls-1" d="M28.88,168.9h6.25v18.69c0,2.06-.04,4.31-.11,6.75-.07,2.43-.22,4.92-.44,7.46-.22,2.54-.54,4.99-.97,7.35-.42,2.36-1,4.5-1.74,6.41-.41-.33-.96-.7-1.66-1.11-.7-.41-1.41-.8-2.13-1.19-.72-.39-1.34-.65-1.85-.8.59-1.77,1.07-3.69,1.44-5.78.37-2.08.64-4.24.8-6.47.17-2.23.28-4.42.33-6.58.06-2.16.08-4.17.08-6.05v-18.69ZM31.59,180.4h9.23v6.69h-9.23v-6.69ZM31.59,192.12h9.23v6.8h-9.23v-6.8ZM32.03,168.9h10.39v6.69h-10.39v-6.69ZM37.78,168.9h6.47v39.31c0,1.47-.12,2.71-.36,3.7-.24,1-.78,1.79-1.63,2.38-.81.59-1.74.96-2.79,1.11-1.05.15-2.28.22-3.68.22-.07-.92-.29-2.06-.64-3.43-.35-1.36-.73-2.51-1.13-3.43.59.04,1.19.07,1.8.08.61.02,1.04.03,1.3.03s.43-.06.52-.19c.09-.13.14-.34.14-.64v-39.14ZM55.31,167.07l6.69.66c-.63,4.98-1.55,9.54-2.76,13.68-1.22,4.15-2.85,7.83-4.89,11.06-2.05,3.23-4.64,5.98-7.77,8.27-.26-.48-.64-1.09-1.13-1.82-.5-.74-1.03-1.47-1.6-2.18-.57-.72-1.08-1.3-1.52-1.74,2.76-1.81,5.02-4.07,6.77-6.8,1.75-2.73,3.12-5.86,4.12-9.4.99-3.54,1.69-7.44,2.1-11.72ZM54.86,192.12h6.75c-.15,2.73-.4,5.28-.75,7.66-.35,2.38-.96,4.55-1.82,6.52-.87,1.97-2.11,3.74-3.73,5.31-1.62,1.57-3.76,2.94-6.41,4.12-.37-.88-.95-1.89-1.74-3.01-.79-1.12-1.58-2.02-2.35-2.68,2.25-.85,4.04-1.86,5.36-3.04,1.33-1.18,2.3-2.51,2.93-3.98.63-1.47,1.06-3.11,1.3-4.92.24-1.81.4-3.8.47-5.97ZM45.13,183.99h29.52v5.97h-29.52v-5.97ZM45.91,175.59h27.86v5.86h-27.86v-5.86ZM46.02,169.56l5.53-1.82c.55.96,1.07,2.03,1.55,3.21.48,1.18.85,2.21,1.11,3.1l-5.92,2.1c-.15-.88-.44-1.95-.88-3.21-.44-1.25-.9-2.38-1.38-3.37ZM48.5,196.32h17.53v6.03h-17.53v-6.03ZM64.1,196.32h6.91c-.04,1.25-.09,2.08-.17,2.49-.15,2.95-.31,5.41-.5,7.38-.19,1.97-.41,3.52-.69,4.64-.28,1.12-.64,1.94-1.08,2.46-.52.66-1.09,1.13-1.71,1.41-.63.28-1.31.47-2.05.58-.66.11-1.49.18-2.49.22-1,.04-2.06.04-3.21,0-.04-.96-.22-2.01-.55-3.15-.33-1.14-.74-2.12-1.22-2.93.81.07,1.56.13,2.24.17.68.04,1.21.06,1.58.06s.66-.04.88-.11c.22-.07.44-.22.66-.44.22-.29.41-.87.58-1.71.17-.85.31-2.09.44-3.73.13-1.64.25-3.77.36-6.39v-.94ZM66.53,178.79c.52,2.25,1.2,4.4,2.05,6.47.85,2.06,1.9,3.93,3.15,5.58,1.25,1.66,2.71,2.99,4.37,3.98-.74.66-1.58,1.57-2.52,2.71-.94,1.14-1.67,2.18-2.18,3.1-1.92-1.4-3.57-3.15-4.95-5.25s-2.53-4.45-3.46-7.05c-.92-2.6-1.7-5.39-2.32-8.38l5.86-1.16ZM65.92,167.4l6.8,1.94c-.74,1.33-1.47,2.59-2.21,3.79-.74,1.2-1.4,2.22-1.99,3.07l-5.58-1.82c.37-.63.74-1.35,1.11-2.16.37-.81.73-1.64,1.08-2.49.35-.85.62-1.62.8-2.32Z"/>
      <path class="woncls-1" d="M80.2,184.81c1.34.22,2.75.4,4.22.56,1.47.15,2.8.23,4.01.23s2.57-.04,4.01-.12c1.44-.08,2.97-.2,4.59-.35,1.62-.15,3.25-.35,4.89-.6,1.65-.25,3.26-.53,4.85-.86l.12,5.47c-1.15.19-2.48.39-3.99.6-1.51.21-3.1.39-4.79.56-1.69.16-3.36.3-5.02.41-1.66.11-3.2.16-4.63.16-1.54,0-3.01-.03-4.42-.08-1.41-.05-2.69-.14-3.85-.25v-5.72ZM94.27,180.57c-.25.77-.44,1.5-.58,2.2-.14.7-.29,1.39-.45,2.08-.14.6-.28,1.27-.43,1.99-.15.73-.31,1.47-.49,2.24-.18.77-.36,1.56-.53,2.36-.18.81-.37,1.6-.58,2.37-.21.77-.41,1.51-.6,2.22,1.51-.66,2.95-1.13,4.34-1.42,1.38-.29,2.86-.43,4.42-.43,2.08,0,3.91.34,5.49,1.03,1.58.69,2.82,1.67,3.74,2.94.92,1.27,1.38,2.78,1.38,4.5,0,2.19-.49,4.05-1.48,5.57-.99,1.52-2.41,2.71-4.26,3.58-1.85.86-4.07,1.42-6.66,1.67s-5.49.21-8.7-.12l-1.6-5.96c2.03.36,4.02.56,5.96.6,1.95.04,3.71-.1,5.28-.41,1.58-.31,2.83-.86,3.76-1.62.93-.77,1.4-1.81,1.4-3.13,0-.99-.43-1.85-1.3-2.59-.86-.74-2.12-1.11-3.76-1.11-2.14,0-4.09.38-5.86,1.13-1.77.75-3.19,1.84-4.26,3.27-.16.25-.32.49-.47.74-.15.25-.32.53-.51.86l-5.43-1.89c.71-1.37,1.37-2.92,1.97-4.65s1.14-3.48,1.63-5.24c.48-1.77.88-3.42,1.19-4.96.31-1.54.54-2.81.68-3.82.14-.93.21-1.7.23-2.3.01-.6,0-1.25-.02-1.93l6.5.25Z"/>
      <path class="woncls-1" d="M113.88,192.67c1.55-.33,3.33-.73,5.33-1.19,2.01-.46,4.14-.95,6.39-1.47,2.25-.52,4.48-1.05,6.69-1.6l.89,6.8c-2.99.88-6.03,1.76-9.12,2.63-3.1.87-5.97,1.69-8.62,2.46l-1.55-7.63ZM120.35,167.07h7.35v40.8c0,1.73-.18,3.08-.52,4.04-.35.96-1.02,1.73-2.02,2.32-.96.55-2.12.91-3.48,1.08-1.36.17-2.99.25-4.86.25-.07-.96-.31-2.09-.72-3.4-.41-1.31-.83-2.44-1.27-3.4.88.04,1.78.07,2.68.08.9.02,1.54.03,1.91.03.37-.04.62-.12.75-.25.13-.13.19-.38.19-.75v-40.8ZM114.93,176.3h16.86v6.86h-16.86v-6.86ZM137.88,167.13h7.19c-.04,4.02-.1,7.93-.19,11.72-.09,3.8-.35,7.44-.77,10.92-.42,3.48-1.09,6.79-1.99,9.92-.9,3.13-2.17,6.03-3.79,8.68-1.62,2.65-3.69,5.03-6.19,7.13-.55-.88-1.32-1.83-2.29-2.85-.98-1.01-1.93-1.81-2.85-2.4,2.28-1.84,4.13-3.93,5.53-6.28,1.4-2.34,2.47-4.87,3.21-7.6.74-2.73,1.25-5.65,1.55-8.76.3-3.11.46-6.39.5-9.81.04-3.43.07-6.98.11-10.67ZM132.35,174.48h29.97v6.86h-29.97v-6.86ZM152.75,185.7h1.27l1.22-.22,4.48,1.22c-.7,4.98-1.82,9.33-3.37,13.05-1.55,3.72-3.54,6.89-5.97,9.51-2.43,2.62-5.34,4.75-8.73,6.41-.44-.88-1.06-1.93-1.85-3.12-.79-1.2-1.56-2.13-2.29-2.79,2.87-1.18,5.35-2.86,7.44-5.03,2.08-2.17,3.79-4.78,5.11-7.82,1.33-3.04,2.23-6.4,2.71-10.09v-1.11ZM143.96,190.9c.99,2.99,2.37,5.69,4.12,8.13,1.75,2.43,3.91,4.52,6.47,6.28,2.56,1.75,5.57,3.09,9.04,4.01-.52.52-1.08,1.15-1.69,1.91-.61.76-1.18,1.53-1.71,2.32-.53.79-.97,1.52-1.3,2.18-3.72-1.29-6.92-3.03-9.59-5.22-2.67-2.19-4.93-4.8-6.77-7.82-1.84-3.02-3.39-6.47-4.64-10.34l6.08-1.44ZM141.09,185.7h13.38v6.58h-14.71l1.33-6.58Z"/>
      <path class="woncls-1" d="M176.81,181.31c-.16.52-.35,1.12-.56,1.79-.21.67-.36,1.23-.47,1.67-.19.88-.41,1.97-.66,3.29-.25,1.32-.46,2.7-.64,4.15-.18,1.45-.28,2.86-.31,4.22-.03,1.36.04,2.52.21,3.48.25-.44.52-1.01.82-1.71.3-.7.6-1.34.91-1.91l2.8,1.85c-.41,1.18-.79,2.37-1.13,3.58-.34,1.21-.64,2.34-.88,3.39-.25,1.06-.47,1.98-.66,2.78-.05.3-.11.64-.16,1.03-.06.38-.08.69-.08.9,0,.19,0,.45.02.78.01.33.03.64.06.95l-5.18.49c-.27-.74-.6-1.8-.97-3.17-.37-1.37-.69-2.88-.95-4.52-.26-1.65-.39-3.24-.39-4.77,0-2.11.07-4.13.21-6.05.14-1.92.29-3.67.47-5.26.18-1.59.33-2.89.47-3.91.11-.58.18-1.19.21-1.85.03-.66.05-1.28.08-1.85l6.79.66ZM179.94,187.81c.66.08,1.29.16,1.89.23.6.07,1.2.11,1.79.12.59.01,1.21.02,1.87.02,1.67,0,3.45-.03,5.35-.1,1.89-.07,3.71-.18,5.45-.33,1.74-.15,3.21-.32,4.42-.51l-.04,5.96c-1.15.11-2.57.21-4.26.31-1.69.1-3.45.17-5.31.23-1.85.06-3.67.08-5.45.08-.52,0-1.1-.01-1.73-.04-.63-.03-1.28-.05-1.95-.06-.67-.01-1.35-.03-2.04-.06v-5.84ZM195.57,180.61c-.08.49-.13.98-.14,1.46-.01.48-.03.94-.06,1.38-.03.38-.04.96-.04,1.73v10.12c0,2.3-.1,4.36-.29,6.17s-.58,3.47-1.17,4.98c-.59,1.51-1.43,2.91-2.53,4.2-1.1,1.29-2.56,2.55-4.4,3.78l-5.31-4.2c.79-.36,1.67-.85,2.61-1.48.95-.63,1.69-1.28,2.24-1.93.55-.69,1.02-1.4,1.42-2.14s.73-1.56.99-2.47c.26-.91.45-1.92.56-3.04.11-1.12.16-2.43.16-3.91v-2.76c0-1.1-.01-2.23-.04-3.39-.03-1.16-.06-2.25-.08-3.25-.03-1-.07-1.8-.12-2.41,0-.49-.06-1.01-.16-1.56-.11-.55-.21-.97-.29-1.28h6.66Z"/>
    </g>
  </g>
</svg>