<?xml version="1.0" encoding="UTF-8"?>
<svg id="_レイヤー_1" data-name="レイヤー 1" xmlns="http://www.w3.org/2000/svg" viewBox="0 0 226.93 333.9">
  <defs>
    <style>
      .cls-1 {
        fill: #c1c1c1;
      }

      .cls-2 {
        fill: #2d2c2c;
      }

      .cls-3 {
        fill: #ddd;
      }

      .cls-4 {
        letter-spacing: 0em;
      }

      .cls-5 {
        font-size: 24.63px;
      }

      .cls-5, .cls-6, .cls-7 {
        font-family: "GenMid"';
        font-weight: 700;
        isolation: isolate;
      }

      .cls-8 {
        fill: #fff;
      }

      .cls-6 {
        font-size: 94.48px;
      }

      .cls-9 {
        fill: #282828;
      }

      .cls-10 {
        letter-spacing: -.08em;
      }

      .cls-7 {
        fill: #7f7f7f;
        font-size: 35px;
      }

      .cls-11 {
        fill: #191919;
      }

      .cls-12 {
        letter-spacing: 0em;
      }

      .cls-13 {
        fill: #ff4a4a;
      }

      .cls-14 {
        fill: #e23737;
      }
    </style>
  </defs>
  <path class="cls-8" d="M30.11,81.76h196.82v222.03c0,16.62-13.49,30.11-30.11,30.11H30.11C13.49,333.9,0,320.41,0,303.79V111.88C0,95.26,13.49,81.77,30.11,81.77h0Z"/>
  <text class="cls-5 playerName" transform="translate(113.465 148.69)" text-anchor="middle"
    id="playerName" fill="#000000">TESTPLAYER</text>
  <path class="cls-2" d="M191.13,47.98h33.14c1.47,0,2.67,1.19,2.67,2.67v31.12h-35.8v-33.78h0Z"/>
  <path class="cls-11" d="M120.41,47.92h70.72v33.78h-77.66v-26.84c0-3.83,3.11-6.94,6.94-6.94Z"/>
  <path id="lamp" class="cls-13" d="M180.79,9.33h11.82c6.23,0,11.29,5.06,11.29,11.29v27.32h-34.4v-27.32c0-6.23,5.06-11.29,11.29-11.29h0Z"/>
  <path class="cls-3" d="M168.43,39.45h36.53c.91,0,1.66.74,1.66,1.66v6.84h-39.85v-6.84c0-.91.74-1.66,1.66-1.66Z"/>
  <rect class="cls-9" x="132.45" y="34.37" width="3.37" height="13.61"/>
  <rect class="cls-14" x="130.41" y="33.96" width="7.45" height="9.23" rx=".78" ry=".78"/>
  <text id="oCount" class="cls-7" transform="translate(67.02 316.55)"><tspan x="0" y="0">0</tspan></text>
  <path class="cls-1" d="M73.14,280.85l4.05-5.77-3.73-5.53h2.34l1.37,2.06c.28.43.5.81.67,1.12.17.31.33.63.5.96.17-.32.33-.64.5-.95.17-.32.4-.69.69-1.13l1.38-2.06h2.3l-3.71,5.46,4,5.84h-2.38l-1.72-2.53c-.27-.4-.48-.73-.63-.99-.15-.26-.3-.54-.46-.85-.17.3-.32.58-.47.85-.15.26-.36.6-.64,1l-1.74,2.53h-2.33Z"/>
  <text id="xCount" class="cls-7" transform="translate(137.3 316.55)"><tspan x="0" y="0">0</tspan></text>
  <path class="cls-1" d="M147.62,280.85v-4.38l-4.18-6.92h2.38l2.02,3.57c.16.28.3.55.43.81.13.26.26.54.38.85.12-.32.25-.61.38-.87.13-.26.27-.52.41-.79l1.99-3.57h2.34l-4.13,6.92v4.38h-2.02Z"/>
  <text id="xCount-2" data-name="xCount" class="cls-6" transform="translate(81.63 253.23)"><tspan x="0" y="0">0</tspan></text>
</svg>